<?xml version="1.0" encoding="UTF-8"?>
<svg width="256px" height="256px" viewBox="0 0 256 256" version="1.1" xmlns="http://www.w3.org/2000/svg" xmlns:xlink="http://www.w3.org/1999/xlink">
    <!-- Generator: Sketch 52.6 (67491) - http://www.bohemiancoding.com/sketch -->
    <title>flattened logo</title>
    <desc>Created with Sketch.</desc>
    <g id="flattened-logo" stroke="none" stroke-width="1" fill="none" fill-rule="evenodd">
        <rect id="Rectangle" fill="#62115C" x="0" y="0" width="256" height="256"></rect>
        <path d="M176,151 L202.947368,151 C209.051568,151 214,146.075132 214,140 C214,133.924868 209.051568,129 202.947368,129 L176,129 L176,80 C176,77.2385763 178.238576,75 181,75 C214.235878,75 235,94.1719972 235,128 C235,161.828003 214.235878,181 181,181 C178.238576,181 176,178.761424 176,176 L176,151 Z" id="Combined-Shape" fill="#979797" fill-rule="nonzero"></path>
        <path d="M101.697039,128.001363 L128.448731,128.001363 C134.552931,128.001363 139.501363,123.076495 139.501363,117.001363 C139.501363,110.92623 134.552931,106.001363 128.448731,106.001363 L93.9053722,106.001363 L85.2882265,81.6705983 C84.3663331,79.0676051 85.7291337,76.2101199 88.3321269,75.2882265 C88.7870249,75.1271168 89.2496954,75.0357837 89.7084491,75.0086524 L89.8851894,75.0013592 C89.9627263,74.9995439 90.0401038,74.9995515 90.1172688,75.0013548 L161.269341,75 C161.766098,75.0337324 162.269907,75.1363658 162.762828,75.321914 C165.347216,76.2947445 166.653642,79.17844 165.680811,81.7628281 L129.680811,177.399192 C129.078443,178.999421 127.743455,180.109684 126.200532,180.492275 C126.030251,180.575398 125.853486,180.649726 125.670598,180.714499 C123.067605,181.636392 120.21012,180.273592 119.288226,177.670598 L101.697039,128.001363 Z" id="Combined-Shape" fill="#979797"></path>
        <path d="M24.5253664,164.001363 L58.448706,164.001363 C64.5529058,164.001363 69.5013375,159.076495 69.5013375,153.001363 C69.5013375,146.92623 64.5529058,142.001363 58.448706,142.001363 L31.4265071,142.001363 L51.2305543,78.8684605 C51.7725025,77.1407955 53.165511,75.9156946 54.8032891,75.5099033 C54.9732246,75.4270009 55.1496155,75.3528571 55.3321018,75.2882265 C57.935095,74.3663331 60.7925802,75.7291337 61.7144737,78.3321269 L95.7144737,174.332127 C96.6363671,176.93512 95.2735665,179.792605 92.6705733,180.714499 C92.0799886,180.923664 91.4763034,181.015219 90.8850967,181.001363 L26.1179562,181.001363 C26.0413749,181.003141 25.9645667,181.003151 25.8875836,181.001363 L25.5142774,181.001363 L25.5216687,180.979322 C25.1829189,180.946335 24.8424537,180.878064 24.5047991,180.772146 C21.8699683,179.94563 20.4040389,177.139655 21.2305543,174.504824 L24.5253664,164.001363 Z" id="Combined-Shape" fill="#979797"></path>
    </g>
</svg>